<svg width="40" height="39" viewBox="0 0 40 39" fill="none" xmlns="http://www.w3.org/2000/svg">
<path d="M20 0C9.23147 0 0.5 8.95781 0.5 19.9962C0.5 28.8321 6.08884 36.3187 13.8366 38.9652C13.9453 38.9888 14.0562 39.0004 14.1674 39C14.89 39 15.1685 38.469 15.1685 38.0076C15.1685 37.5288 15.1511 36.2752 15.1424 34.6038C14.4974 34.755 13.8375 34.8338 13.175 34.8388C9.42299 34.8388 8.56987 31.9225 8.56987 31.9225C7.68192 29.6156 6.40223 28.9975 6.40223 28.9975C4.70469 27.8049 6.39353 27.7701 6.52411 27.7701H6.53281C8.49152 27.9442 9.51875 29.842 9.51875 29.842C10.4938 31.5482 11.7996 32.027 12.9661 32.027C13.7374 32.0116 14.4968 31.8336 15.1946 31.5047C15.3688 30.2163 15.8737 29.337 16.4308 28.8321C12.1042 28.3272 7.55134 26.6123 7.55134 18.9516C7.55134 16.7665 8.30871 14.9819 9.55357 13.5891C9.35335 13.0841 8.68303 11.0471 9.74509 8.2962C9.88755 8.26211 10.034 8.24747 10.1804 8.25268C10.8855 8.25268 12.4786 8.52254 15.1076 10.3507C18.3021 9.4569 21.6805 9.4569 24.875 10.3507C27.504 8.52254 29.0971 8.25268 29.8022 8.25268C29.9486 8.24747 30.095 8.26211 30.2375 8.2962C31.2996 11.0471 30.6292 13.0841 30.429 13.5891C31.6739 14.9906 32.4312 16.7752 32.4312 18.9516C32.4312 26.6297 27.8696 28.3185 23.5257 28.8147C24.2221 29.4328 24.8489 30.6516 24.8489 32.5145C24.8489 35.187 24.8228 37.346 24.8228 37.9989C24.8228 38.469 25.0926 39 25.8152 39C25.9321 39.0005 26.0488 38.9888 26.1634 38.9652C33.9199 36.3187 39.5 28.8234 39.5 19.9962C39.5 8.95781 30.7685 0 20 0Z" fill="white"/>
</svg>
