<svg width="40" height="35" viewBox="0 0 40 35" fill="none" xmlns="http://www.w3.org/2000/svg">
<path d="M37.64 0.00257499C37.1969 0.0212771 36.7657 0.139922 36.3767 0.289768C35.9918 0.438613 33.7755 1.34873 30.5027 2.69501C27.2299 4.0413 22.9755 5.79444 18.7581 7.53286C10.3235 11.0097 2.03507 14.4306 2.03507 14.4306L2.09548 14.4084C2.09548 14.4084 1.59523 14.5693 1.08804 14.9093C0.834452 15.0793 0.561628 15.2987 0.338243 15.6187C0.114857 15.9387 -0.0484521 16.3921 0.0130913 16.8718C0.22926 18.5564 2.04395 19.0343 2.04395 19.0343L2.05106 19.0377L10.1496 21.7045C10.3561 22.3672 12.606 29.592 13.1009 31.122C13.3742 31.9679 13.63 32.4559 13.8969 32.7888C14.0304 32.9554 14.1703 33.0843 14.3251 33.1785C14.3866 33.216 14.4512 33.2441 14.5152 33.2691H14.5187C14.5266 33.2725 14.534 33.2728 14.5418 33.276L14.5205 33.2709C14.5354 33.2766 14.5501 33.2864 14.5649 33.2914C14.5938 33.3011 14.6115 33.3008 14.6485 33.3085C15.5759 33.62 16.3435 33.0418 16.3435 33.0418L16.3755 33.0179L21.3505 28.5783L29.4242 34.635L29.5254 34.6795C30.9386 35.2832 32.2167 34.9464 32.9244 34.3923C33.6322 33.8382 33.9105 33.1238 33.9105 33.1238L33.9408 33.0486L39.8734 3.29846C40.0252 2.63288 40.0468 2.05757 39.9036 1.53769C39.7605 1.01782 39.4126 0.565897 38.9762 0.315411C38.5397 0.0649246 38.0831 -0.0161271 37.64 0.00257499ZM37.688 1.78215C37.8679 1.77413 38.0013 1.79392 38.0433 1.81805C38.0854 1.84217 38.1043 1.839 38.1446 1.98558C38.185 2.13216 38.2068 2.44089 38.0966 2.92408L38.0931 2.93434L32.1942 32.5118C32.1938 32.5126 32.1934 32.5134 32.193 32.5144C32.1742 32.5548 32.0505 32.8205 31.7766 33.0349C31.4903 33.2591 31.1719 33.4341 30.3268 33.0931L21.4979 26.4688L21.2492 26.2808L21.2439 26.2859L18.6036 24.3798L33.4415 7.58414C33.5555 7.45542 33.6283 7.29767 33.6511 7.12998C33.6739 6.96229 33.6458 6.79183 33.57 6.63921C33.4943 6.48659 33.3742 6.35835 33.2243 6.27C33.0744 6.18164 32.9012 6.13695 32.7254 6.14133C32.5537 6.14563 32.3868 6.1966 32.2439 6.28835L10.7733 20.06L2.66227 17.388C2.66227 17.388 1.85685 16.9568 1.8183 16.6564C1.81616 16.6397 1.80665 16.6548 1.84851 16.5948C1.89036 16.5349 1.99556 16.4337 2.12746 16.3452C2.39126 16.1684 2.69248 16.0615 2.69248 16.0615L2.72268 16.0512L2.75289 16.0393C2.75289 16.0393 11.0418 12.6181 19.476 9.14148C23.6931 7.40316 27.9467 5.6513 31.2187 4.30535C34.4899 2.95974 36.8535 1.99119 37.0537 1.91378C37.2815 1.82599 37.508 1.79017 37.688 1.78215ZM27.8482 11.2117L16.5958 23.949L16.5905 23.9542C16.5729 23.9745 16.5563 23.9956 16.5407 24.0174C16.5229 24.0411 16.5063 24.0656 16.491 24.0909C16.4278 24.1942 16.3872 24.3088 16.3719 24.4277C16.3719 24.43 16.3719 24.4323 16.3719 24.4345L14.9061 30.7767C14.8817 30.7082 14.8647 30.6831 14.8386 30.6024V30.6006C14.373 29.1613 12.2503 22.3477 11.9566 21.4053L27.8482 11.2117ZM17.8662 26.0363L19.8882 27.4962L16.9174 30.1459L17.8662 26.0363Z" fill="white"/>
<path d="M37.688 1.78215C37.8679 1.77413 38.0013 1.79392 38.0433 1.81805C38.0854 1.84217 38.1043 1.839 38.1446 1.98558C38.185 2.13216 38.2068 2.44089 38.0966 2.92408L38.0931 2.93434L32.1942 32.5118L32.193 32.5144C32.1742 32.5548 32.0505 32.8205 31.7766 33.0349C31.4903 33.2591 31.1719 33.4341 30.3268 33.0931L21.4979 26.4688L21.2492 26.2808L21.2439 26.2859L18.6036 24.3798L33.4415 7.58414C33.5555 7.45542 33.6283 7.29767 33.6511 7.12998C33.6739 6.96229 33.6458 6.79183 33.57 6.63921C33.4943 6.48659 33.3742 6.35835 33.2243 6.27C33.0744 6.18164 32.9012 6.13695 32.7254 6.14133C32.5537 6.14563 32.3868 6.1966 32.2439 6.28835L10.7733 20.06L2.66227 17.388C2.66227 17.388 1.85685 16.9568 1.8183 16.6564C1.81616 16.6397 1.80665 16.6548 1.84851 16.5948C1.89036 16.5349 1.99556 16.4337 2.12746 16.3452C2.39126 16.1684 2.69248 16.0615 2.69248 16.0615L2.72268 16.0512L2.75289 16.0393C2.75289 16.0393 11.0418 12.6181 19.476 9.14148C23.6931 7.40316 27.9467 5.6513 31.2187 4.30535C34.4899 2.95974 36.8535 1.99119 37.0537 1.91378C37.2815 1.82599 37.508 1.79017 37.688 1.78215Z" fill="white"/>
<path d="M17.8662 26.0363L19.8882 27.4962L16.9174 30.1459L17.8662 26.0363Z" fill="white"/>
</svg>
