<svg width="49" height="30" viewBox="0 0 49 30" fill="none" xmlns="http://www.w3.org/2000/svg">
<path fill-rule="evenodd" clip-rule="evenodd" d="M47.8465 2.08333C48.2099 0.908333 47.8465 0.0541663 46.2387 0.0541663H40.8926C39.5441 0.0541663 38.9214 0.802083 38.5579 1.60208C38.5579 1.60208 35.8078 8.43542 31.9674 12.8656C30.722 14.1469 30.1514 14.574 29.4766 14.574C29.1132 14.574 28.6456 14.1469 28.6456 12.9729V2.02813C28.6456 0.640625 28.2312 0 27.0889 0H18.6813C17.8503 0 17.3317 0.640625 17.3317 1.28125C17.3317 2.61563 19.2519 2.93646 19.4592 6.67292V14.7917C19.4592 16.5531 19.1529 16.875 18.473 16.875C16.657 16.875 12.2459 9.98854 9.59993 2.14167C9.08543 0.5875 8.56276 0 7.21322 0H1.81606C0.259292 0 0 0.746875 0 1.54792C0 2.98958 1.81606 10.249 8.45864 19.8573C12.8697 26.4198 19.1488 29.9469 24.8053 29.9469C28.2312 29.9469 28.6456 29.1458 28.6456 27.8115V22.8469C28.6456 21.2458 28.957 20.9792 30.0472 20.9792C30.8251 20.9792 32.2267 21.4052 35.3923 24.5552C39.0245 28.2917 39.6472 30 41.6715 30H47.0166C48.5734 30 49.3002 29.199 48.8847 27.651C48.4182 26.1031 46.6532 23.8615 44.3696 21.1927C43.1241 19.699 41.256 18.0437 40.6854 17.2427C39.9075 16.175 40.1147 15.7479 40.6854 14.7875C40.6333 14.7875 47.1728 5.28542 47.8465 2.07917" fill="white"/>
</svg>
